<svg width="12" height="12" viewBox="0 0 12 12" fill="none" xmlns="http://www.w3.org/2000/svg">
<g clip-path="url(#clip0_3_24)">
<path d="M5.68504 0.975586C3.09442 0.975586 0.986786 3.08322 0.986786 5.67384C0.986786 8.26446 3.09442 10.3721 5.68504 10.3721C8.27566 10.3721 10.3833 8.26446 10.3833 5.67384C10.3833 3.08322 8.27566 0.975586 5.68504 0.975586ZM4.74586 7.74718L3.33378 6.33814C3.15019 6.15495 3.14982 5.85764 3.33295 5.67399C3.51619 5.49023 3.81373 5.48989 3.99739 5.67323L4.74492 6.41946L6.90001 4.26437C7.08346 4.08092 7.38089 4.08091 7.56435 4.26437C7.7478 4.44782 7.7478 4.74525 7.56435 4.9287L4.74586 7.74718Z" fill="#2FAB73"/>
</g>
<defs>
<clipPath id="clip0_3_24">
<rect width="11.2758" height="11.2758" fill="white" transform="translate(0.0467529 0.0360107)"/>
</clipPath>
</defs>
</svg>
