<svg width="34" height="32" viewBox="0 0 34 32" fill="none" xmlns="http://www.w3.org/2000/svg">
<path d="M3.12053 27.4735C2.60685 27.4735 2.15895 27.392 1.77683 27.2292C1.40097 27.0663 1.11281 26.8533 0.912347 26.5902C0.718152 26.3208 0.61479 26.0327 0.602262 25.7257C0.602262 25.6756 0.621055 25.6318 0.658641 25.5942C0.696227 25.5566 0.743209 25.5378 0.799589 25.5378H1.26002C1.37278 25.5378 1.45108 25.6004 1.49493 25.7257C1.55131 25.9888 1.71105 26.2175 1.97415 26.4117C2.24352 26.5996 2.62564 26.6936 3.12053 26.6936C3.653 26.6936 4.05078 26.5996 4.31388 26.4117C4.57699 26.2237 4.70854 25.9638 4.70854 25.6318C4.70854 25.4188 4.64276 25.2434 4.51121 25.1056C4.38592 24.9677 4.19486 24.8487 3.93802 24.7485C3.68745 24.642 3.30846 24.5136 2.80105 24.3632C2.31869 24.2254 1.93343 24.0782 1.64527 23.9216C1.36338 23.765 1.15039 23.5739 1.00631 23.3484C0.862232 23.1166 0.790192 22.8253 0.790192 22.4745C0.790192 22.1363 0.881025 21.8356 1.06269 21.5725C1.24436 21.3031 1.50746 21.0932 1.852 20.9429C2.19654 20.7863 2.60372 20.708 3.07354 20.708C3.56216 20.708 3.97874 20.7957 4.32328 20.9711C4.67408 21.1402 4.94032 21.3564 5.12198 21.6195C5.30365 21.8763 5.40075 22.1363 5.41328 22.3994C5.41328 22.4557 5.39448 22.5027 5.3569 22.5403C5.31931 22.5779 5.27233 22.5967 5.21595 22.5967H4.74612C4.69601 22.5967 4.64903 22.581 4.60518 22.5497C4.56133 22.5184 4.53 22.4714 4.51121 22.4088C4.47363 22.1394 4.32328 21.917 4.06018 21.7416C3.79708 21.5662 3.4682 21.4785 3.07354 21.4785C2.64757 21.4785 2.30929 21.5631 2.05872 21.7322C1.80815 21.8951 1.68286 22.1394 1.68286 22.4651C1.68286 22.6844 1.73924 22.8629 1.852 23.0007C1.97102 23.1386 2.14955 23.2607 2.3876 23.3672C2.63191 23.4737 2.98584 23.5959 3.44941 23.7337C3.98187 23.884 4.39845 24.0344 4.69914 24.1847C5.00609 24.335 5.23474 24.523 5.38509 24.7485C5.53543 24.9677 5.6106 25.2528 5.6106 25.6036C5.6106 26.1924 5.38509 26.6529 4.93405 26.9849C4.48929 27.3106 3.88478 27.4735 3.12053 27.4735ZM8.66557 27.4735C8.02661 27.4735 7.51606 27.2762 7.13394 26.8815C6.75181 26.4806 6.54196 25.9356 6.50437 25.2465L6.49498 24.927L6.50437 24.6169C6.54196 23.9404 6.75181 23.4017 7.13394 23.0007C7.51606 22.5998 8.02661 22.3994 8.66557 22.3994C9.35465 22.3994 9.88712 22.6186 10.263 23.0571C10.6451 23.4956 10.8362 24.0907 10.8362 24.8425V25.0116C10.8362 25.0742 10.8142 25.1275 10.7704 25.1713C10.7328 25.2089 10.6827 25.2277 10.62 25.2277H7.35946V25.3123C7.37825 25.7195 7.50354 26.0671 7.73532 26.3553C7.9671 26.6435 8.27405 26.7875 8.65617 26.7875C8.9506 26.7875 9.18864 26.7312 9.37031 26.6184C9.55824 26.4994 9.69919 26.3772 9.79315 26.2519C9.84953 26.1768 9.89338 26.1329 9.9247 26.1204C9.95603 26.1016 10.0093 26.0922 10.0844 26.0922H10.4979C10.5543 26.0922 10.6013 26.1079 10.6388 26.1392C10.6827 26.1705 10.7046 26.2112 10.7046 26.2613C10.7046 26.3991 10.62 26.5652 10.4509 26.7593C10.2818 26.9535 10.0406 27.1227 9.72738 27.2668C9.42042 27.4046 9.06649 27.4735 8.66557 27.4735ZM9.98108 24.5888V24.5606C9.98108 24.1221 9.86206 23.765 9.62402 23.4894C9.38597 23.2137 9.06649 23.0759 8.66557 23.0759C8.25839 23.0759 7.93891 23.2137 7.70713 23.4894C7.47535 23.765 7.35946 24.1221 7.35946 24.5606V24.5888H9.98108ZM12.1948 27.3795C12.1322 27.3795 12.079 27.3607 12.0351 27.3231C11.9975 27.2793 11.9787 27.226 11.9787 27.1634V22.7188C11.9787 22.6562 11.9975 22.603 12.0351 22.5591C12.079 22.5153 12.1322 22.4933 12.1948 22.4933H12.5895C12.6584 22.4933 12.7117 22.5153 12.7492 22.5591C12.7931 22.5967 12.815 22.6499 12.815 22.7188V23.1323C13.0719 22.7063 13.5072 22.4933 14.1211 22.4933H14.4876C14.5565 22.4933 14.6097 22.5121 14.6473 22.5497C14.6849 22.5873 14.7037 22.6405 14.7037 22.7094V23.0571C14.7037 23.1198 14.6849 23.173 14.6473 23.2169C14.6097 23.2544 14.5565 23.2732 14.4876 23.2732H13.952C13.6075 23.2732 13.335 23.3735 13.1345 23.5739C12.9403 23.7744 12.8432 24.0469 12.8432 24.3914V27.1634C12.8432 27.226 12.8213 27.2793 12.7774 27.3231C12.7336 27.3607 12.6803 27.3795 12.6177 27.3795H12.1948ZM17.2124 27.3795C17.0495 27.3795 16.9336 27.3012 16.8647 27.1446L15.1169 22.7846C15.1107 22.7658 15.1075 22.7345 15.1075 22.6907C15.1075 22.6343 15.1263 22.5873 15.1639 22.5497C15.2015 22.5121 15.2454 22.4933 15.2955 22.4933H15.7277C15.8279 22.4933 15.9031 22.5434 15.9532 22.6437L17.4003 26.3929L18.8474 22.6437C18.8599 22.6061 18.8849 22.5716 18.9225 22.5403C18.9664 22.509 19.0165 22.4933 19.0729 22.4933H19.5051C19.5552 22.4933 19.5991 22.5121 19.6367 22.5497C19.6742 22.5873 19.693 22.6343 19.693 22.6907L19.6742 22.7846L17.9359 27.1446C17.867 27.3012 17.7511 27.3795 17.5882 27.3795H17.2124ZM22.4575 27.4735C21.8186 27.4735 21.308 27.2762 20.9259 26.8815C20.5438 26.4806 20.3339 25.9356 20.2963 25.2465L20.2869 24.927L20.2963 24.6169C20.3339 23.9404 20.5438 23.4017 20.9259 23.0007C21.308 22.5998 21.8186 22.3994 22.4575 22.3994C23.1466 22.3994 23.6791 22.6186 24.0549 23.0571C24.4371 23.4956 24.6281 24.0907 24.6281 24.8425V25.0116C24.6281 25.0742 24.6062 25.1275 24.5623 25.1713C24.5248 25.2089 24.4746 25.2277 24.412 25.2277H21.1514V25.3123C21.1702 25.7195 21.2955 26.0671 21.5273 26.3553C21.759 26.6435 22.066 26.7875 22.4481 26.7875C22.7426 26.7875 22.9806 26.7312 23.1623 26.6184C23.3502 26.4994 23.4911 26.3772 23.5851 26.2519C23.6415 26.1768 23.6853 26.1329 23.7167 26.1204C23.748 26.1016 23.8012 26.0922 23.8764 26.0922H24.2898C24.3462 26.0922 24.3932 26.1079 24.4308 26.1392C24.4746 26.1705 24.4966 26.2112 24.4966 26.2613C24.4966 26.3991 24.412 26.5652 24.2429 26.7593C24.0737 26.9535 23.8325 27.1227 23.5193 27.2668C23.2124 27.4046 22.8584 27.4735 22.4575 27.4735ZM23.773 24.5888V24.5606C23.773 24.1221 23.654 23.765 23.416 23.4894C23.1779 23.2137 22.8584 23.0759 22.4575 23.0759C22.0503 23.0759 21.7309 23.2137 21.4991 23.4894C21.2673 23.765 21.1514 24.1221 21.1514 24.5606V24.5888H23.773ZM25.9868 27.3795C25.9242 27.3795 25.8709 27.3607 25.8271 27.3231C25.7895 27.2793 25.7707 27.226 25.7707 27.1634V22.7188C25.7707 22.6562 25.7895 22.603 25.8271 22.5591C25.8709 22.5153 25.9242 22.4933 25.9868 22.4933H26.3814C26.4504 22.4933 26.5036 22.5153 26.5412 22.5591C26.585 22.5967 26.607 22.6499 26.607 22.7188V23.1323C26.8638 22.7063 27.2992 22.4933 27.9131 22.4933H28.2795C28.3485 22.4933 28.4017 22.5121 28.4393 22.5497C28.4769 22.5873 28.4957 22.6405 28.4957 22.7094V23.0571C28.4957 23.1198 28.4769 23.173 28.4393 23.2169C28.4017 23.2544 28.3485 23.2732 28.2795 23.2732H27.7439C27.3994 23.2732 27.1269 23.3735 26.9264 23.5739C26.7323 23.7744 26.6352 24.0469 26.6352 24.3914V27.1634C26.6352 27.226 26.6132 27.2793 26.5694 27.3231C26.5255 27.3607 26.4723 27.3795 26.4096 27.3795H25.9868ZM30.9761 27.4735C30.5439 27.4735 30.1774 27.4046 29.8767 27.2668C29.5823 27.1227 29.3631 26.9598 29.219 26.7781C29.0749 26.5965 29.0029 26.4461 29.0029 26.3271C29.0029 26.2645 29.0248 26.2175 29.0686 26.1862C29.1125 26.1486 29.1595 26.1298 29.2096 26.1298H29.6042C29.6418 26.1298 29.67 26.136 29.6888 26.1486C29.7139 26.1611 29.7452 26.1893 29.7828 26.2331C29.9268 26.4085 30.0866 26.5464 30.262 26.6466C30.4437 26.7468 30.6848 26.7969 30.9855 26.7969C31.3238 26.7969 31.5932 26.7343 31.7936 26.609C32.0003 26.4837 32.1037 26.302 32.1037 26.064C32.1037 25.9074 32.0599 25.7821 31.9722 25.6881C31.8845 25.5942 31.7372 25.5096 31.5305 25.4344C31.3301 25.3593 31.0294 25.2778 30.6285 25.1901C30.0835 25.0711 29.6982 24.8988 29.4727 24.6733C29.2472 24.4478 29.1344 24.1565 29.1344 23.7994C29.1344 23.5677 29.2033 23.3453 29.3411 23.1323C29.4789 22.913 29.6825 22.7376 29.9519 22.6061C30.2275 22.4683 30.5533 22.3994 30.9291 22.3994C31.3238 22.3994 31.6589 22.4651 31.9346 22.5967C32.2165 22.7282 32.4263 22.8817 32.5641 23.0571C32.7082 23.2325 32.7803 23.3797 32.7803 23.4988C32.7803 23.5551 32.7583 23.6021 32.7145 23.6397C32.6769 23.6773 32.6299 23.6961 32.5735 23.6961H32.2165C32.1288 23.6961 32.0661 23.6616 32.0285 23.5927C31.922 23.4737 31.8312 23.3829 31.756 23.3202C31.6871 23.2513 31.5838 23.1949 31.4459 23.1511C31.3081 23.101 31.1359 23.0759 30.9291 23.0759C30.6222 23.0759 30.3873 23.1417 30.2244 23.2732C30.0615 23.3985 29.9801 23.5677 29.9801 23.7807C29.9801 23.9122 30.0145 24.025 30.0835 24.1189C30.1524 24.2066 30.2839 24.2912 30.4781 24.3726C30.6723 24.4478 30.9605 24.5261 31.3426 24.6075C31.9377 24.7328 32.3574 24.9114 32.6017 25.1431C32.8523 25.3749 32.9776 25.6725 32.9776 26.0358C32.9776 26.3052 32.8993 26.5495 32.7427 26.7687C32.5923 26.988 32.3637 27.1603 32.0567 27.2856C31.756 27.4108 31.3958 27.4735 30.9761 27.4735Z" fill="#4F5665"/>
<path d="M3.99178 12.0647C3.27921 12.0647 2.66452 11.9512 2.14771 11.7241C1.63874 11.497 1.25113 11.1956 0.984895 10.8197C0.726491 10.4439 0.589458 10.0328 0.573798 9.58642C0.573798 9.51594 0.597289 9.45722 0.644271 9.41023C0.691254 9.36325 0.749982 9.33976 0.820456 9.33976H2.47659C2.66452 9.33976 2.79372 9.41415 2.8642 9.56293C2.97382 9.82133 3.11869 10.0093 3.29879 10.1267C3.48672 10.2442 3.71771 10.3029 3.99178 10.3029C4.32849 10.3029 4.60647 10.2011 4.82572 9.99752C5.0528 9.79392 5.16634 9.50811 5.16634 9.14008C5.16634 8.81904 5.05672 8.5528 4.83747 8.34138C4.61821 8.12996 4.33632 8.02425 3.99178 8.02425C3.79602 8.02425 3.63941 8.05165 3.52195 8.10647C3.4045 8.15345 3.29096 8.22001 3.18133 8.30614C3.06387 8.40011 2.96208 8.44709 2.87594 8.44709H1.2433C1.17283 8.44709 1.11018 8.4236 1.05537 8.37662C1.00839 8.3218 0.984895 8.25916 0.984895 8.18869L1.41948 4.06597C1.42731 3.95634 1.46647 3.87021 1.53694 3.80756C1.61524 3.74492 1.70529 3.7136 1.80709 3.7136H6.58757C6.6737 3.7136 6.74417 3.741 6.79899 3.79582C6.8538 3.85063 6.88121 3.9211 6.88121 4.00724V5.1818C6.88121 5.26011 6.8538 5.33058 6.79899 5.39322C6.74417 5.44804 6.6737 5.47544 6.58757 5.47544H3.16958L3.02864 6.92016C3.21657 6.78704 3.42799 6.68916 3.6629 6.62652C3.89781 6.55604 4.2032 6.52081 4.57906 6.52081C5.08021 6.52081 5.55003 6.63435 5.98854 6.86143C6.42704 7.08068 6.7755 7.3939 7.0339 7.80108C7.30014 8.20826 7.43325 8.67417 7.43325 9.19881C7.43325 9.74694 7.29622 10.2403 7.02216 10.6788C6.74809 11.1094 6.34874 11.4501 5.8241 11.7006C5.30729 11.9434 4.69652 12.0647 3.99178 12.0647ZM11.8539 12.053C10.7733 12.0452 9.95113 11.7594 9.38734 11.1956C8.82355 10.6318 8.51425 9.88789 8.45944 8.9639C8.44378 8.54106 8.43594 8.16128 8.43594 7.82457C8.43594 7.48003 8.44378 7.08851 8.45944 6.65001C8.49076 6.06273 8.63562 5.542 8.89402 5.08784C9.16026 4.62584 9.54004 4.26173 10.0334 3.99549C10.5345 3.72926 11.1414 3.59614 11.8539 3.59614C12.5665 3.59614 13.1734 3.72926 13.6745 3.99549C14.1756 4.26173 14.5554 4.62584 14.8138 5.08784C15.0801 5.542 15.2288 6.06273 15.2602 6.65001C15.2758 6.86926 15.2837 7.26078 15.2837 7.82457C15.2837 8.3727 15.2758 8.75248 15.2602 8.9639C15.2054 9.88789 14.896 10.6318 14.3323 11.1956C13.7685 11.7594 12.9424 12.0452 11.8539 12.053ZM11.8539 10.2794C12.222 10.2794 12.496 10.162 12.6761 9.92704C12.8562 9.6843 12.9541 9.34368 12.9698 8.90517C12.9854 8.67809 12.9933 8.31006 12.9933 7.80108C12.9933 7.2921 12.9854 6.9319 12.9698 6.72048C12.9541 6.29764 12.8562 5.96485 12.6761 5.7221C12.496 5.47153 12.222 5.34624 11.8539 5.34624C11.1492 5.34624 10.7772 5.80432 10.7381 6.72048C10.7303 6.9319 10.7263 7.2921 10.7263 7.80108C10.7263 8.31006 10.7303 8.67809 10.7381 8.90517C10.7772 9.82133 11.1492 10.2794 11.8539 10.2794ZM18.9318 11.5479C18.8535 11.5479 18.783 11.5205 18.7204 11.4657C18.6655 11.4031 18.6381 11.3326 18.6381 11.2543V9.12834H16.5709C16.4926 9.12834 16.4221 9.10093 16.3595 9.04612C16.3047 8.98348 16.2773 8.913 16.2773 8.8347V7.93028C16.2773 7.84415 16.3047 7.77367 16.3595 7.71886C16.4143 7.65622 16.4848 7.6249 16.5709 7.6249H18.6381V5.56941C18.6381 5.48327 18.6655 5.4128 18.7204 5.35799C18.783 5.30317 18.8535 5.27577 18.9318 5.27577H19.9419C20.028 5.27577 20.0985 5.30317 20.1533 5.35799C20.216 5.4128 20.2473 5.48327 20.2473 5.56941V7.6249H22.291C22.3772 7.6249 22.4476 7.65622 22.5025 7.71886C22.5651 7.77367 22.5964 7.84415 22.5964 7.93028V8.8347C22.5964 8.92083 22.5651 8.99131 22.5025 9.04612C22.4476 9.10093 22.3772 9.12834 22.291 9.12834H20.2473V11.2543C20.2473 11.3404 20.216 11.4109 20.1533 11.4657C20.0985 11.5205 20.028 11.5479 19.9419 11.5479H18.9318Z" fill="#0B132A"/>
</svg>
