<svg width="26" height="32" viewBox="0 0 26 32" fill="none" xmlns="http://www.w3.org/2000/svg">
<path d="M3.51524 27.4735C2.70714 27.4735 2.08384 27.2574 1.64534 26.8251C1.20683 26.3866 0.987582 25.7257 0.987582 24.8425V21.0275C0.987582 20.9586 1.00637 20.9053 1.04396 20.8677C1.08155 20.8239 1.13166 20.802 1.19431 20.802H1.64534C1.71425 20.802 1.76749 20.8239 1.80508 20.8677C1.84893 20.9053 1.87085 20.9586 1.87085 21.0275V24.8613C1.87085 25.4752 2.0118 25.9325 2.2937 26.2331C2.58186 26.5338 2.98904 26.6842 3.51524 26.6842C4.03518 26.6842 4.4361 26.5338 4.718 26.2331C5.00616 25.9262 5.15024 25.4689 5.15024 24.8613V21.0275C5.15024 20.9586 5.16903 20.9053 5.20662 20.8677C5.2442 20.8239 5.29745 20.802 5.36636 20.802H5.81739C5.88003 20.802 5.93015 20.8239 5.96773 20.8677C6.01158 20.9053 6.03351 20.9586 6.03351 21.0275V24.8425C6.03351 25.7257 5.81426 26.3866 5.37575 26.8251C4.94351 27.2574 4.32334 27.4735 3.51524 27.4735ZM9.13708 27.4735C8.70484 27.4735 8.33837 27.4046 8.03768 27.2668C7.74326 27.1227 7.52401 26.9598 7.37993 26.7781C7.23585 26.5965 7.16381 26.4461 7.16381 26.3271C7.16381 26.2645 7.18573 26.2175 7.22958 26.1862C7.27343 26.1486 7.32042 26.1298 7.37053 26.1298H7.76518C7.80277 26.1298 7.83096 26.136 7.84975 26.1486C7.87481 26.1611 7.90613 26.1893 7.94372 26.2331C8.0878 26.4085 8.24754 26.5464 8.42294 26.6466C8.60461 26.7468 8.84578 26.7969 9.14647 26.7969C9.48475 26.7969 9.75411 26.7343 9.95457 26.609C10.1613 26.4837 10.2647 26.302 10.2647 26.064C10.2647 25.9074 10.2208 25.7821 10.1331 25.6881C10.0454 25.5942 9.89819 25.5096 9.69147 25.4344C9.49101 25.3593 9.19032 25.2778 8.7894 25.1901C8.24441 25.0711 7.85915 24.8988 7.63363 24.6733C7.40812 24.4478 7.29536 24.1565 7.29536 23.7994C7.29536 23.5677 7.36427 23.3453 7.50208 23.1323C7.6399 22.913 7.84349 22.7376 8.11285 22.6061C8.38849 22.4683 8.71423 22.3994 9.09009 22.3994C9.48475 22.3994 9.81989 22.4651 10.0955 22.5967C10.3774 22.7282 10.5873 22.8817 10.7251 23.0571C10.8692 23.2325 10.9412 23.3797 10.9412 23.4988C10.9412 23.5551 10.9193 23.6021 10.8754 23.6397C10.8378 23.6773 10.7909 23.6961 10.7345 23.6961H10.3774C10.2897 23.6961 10.2271 23.6616 10.1895 23.5927C10.083 23.4737 9.99216 23.3829 9.91699 23.3202C9.84808 23.2513 9.74472 23.1949 9.6069 23.1511C9.46909 23.101 9.29682 23.0759 9.09009 23.0759C8.78314 23.0759 8.54823 23.1417 8.38535 23.2732C8.22248 23.3985 8.14104 23.5677 8.14104 23.7807C8.14104 23.9122 8.1755 24.025 8.24441 24.1189C8.31331 24.2066 8.44487 24.2912 8.63906 24.3726C8.83325 24.4478 9.12141 24.5261 9.50354 24.6075C10.0987 24.7328 10.5184 24.9114 10.7627 25.1431C11.0132 25.3749 11.1385 25.6725 11.1385 26.0358C11.1385 26.3052 11.0602 26.5495 10.9036 26.7687C10.7533 26.988 10.5246 27.1603 10.2177 27.2856C9.91699 27.4108 9.55679 27.4735 9.13708 27.4735ZM14.1718 27.4735C13.5329 27.4735 13.0223 27.2762 12.6402 26.8815C12.2581 26.4806 12.0482 25.9356 12.0106 25.2465L12.0012 24.927L12.0106 24.6169C12.0482 23.9404 12.2581 23.4017 12.6402 23.0007C13.0223 22.5998 13.5329 22.3994 14.1718 22.3994C14.8609 22.3994 15.3934 22.6186 15.7693 23.0571C16.1514 23.4956 16.3424 24.0907 16.3424 24.8425V25.0116C16.3424 25.0742 16.3205 25.1275 16.2767 25.1713C16.2391 25.2089 16.189 25.2277 16.1263 25.2277H12.8657V25.3123C12.8845 25.7195 13.0098 26.0671 13.2416 26.3553C13.4734 26.6435 13.7803 26.7875 14.1624 26.7875C14.4569 26.7875 14.6949 26.7312 14.8766 26.6184C15.0645 26.4994 15.2055 26.3772 15.2994 26.2519C15.3558 26.1768 15.3997 26.1329 15.431 26.1204C15.4623 26.1016 15.5155 26.0922 15.5907 26.0922H16.0042C16.0605 26.0922 16.1075 26.1079 16.1451 26.1392C16.189 26.1705 16.2109 26.2112 16.2109 26.2613C16.2109 26.3991 16.1263 26.5652 15.9572 26.7593C15.788 26.9535 15.5469 27.1227 15.2336 27.2668C14.9267 27.4046 14.5728 27.4735 14.1718 27.4735ZM15.4874 24.5888V24.5606C15.4874 24.1221 15.3683 23.765 15.1303 23.4894C14.8922 23.2137 14.5728 23.0759 14.1718 23.0759C13.7647 23.0759 13.4452 23.2137 13.2134 23.4894C12.9816 23.765 12.8657 24.1221 12.8657 24.5606V24.5888H15.4874ZM17.7011 27.3795C17.6385 27.3795 17.5852 27.3607 17.5414 27.3231C17.5038 27.2793 17.485 27.226 17.485 27.1634V22.7188C17.485 22.6562 17.5038 22.603 17.5414 22.5591C17.5852 22.5153 17.6385 22.4933 17.7011 22.4933H18.0958C18.1647 22.4933 18.2179 22.5153 18.2555 22.5591C18.2994 22.5967 18.3213 22.6499 18.3213 22.7188V23.1323C18.5781 22.7063 19.0135 22.4933 19.6274 22.4933H19.9939C20.0628 22.4933 20.116 22.5121 20.1536 22.5497C20.1912 22.5873 20.21 22.6405 20.21 22.7094V23.0571C20.21 23.1198 20.1912 23.173 20.1536 23.2169C20.116 23.2544 20.0628 23.2732 19.9939 23.2732H19.4583C19.1137 23.2732 18.8412 23.3735 18.6408 23.5739C18.4466 23.7744 18.3495 24.0469 18.3495 24.3914V27.1634C18.3495 27.226 18.3276 27.2793 18.2837 27.3231C18.2398 27.3607 18.1866 27.3795 18.124 27.3795H17.7011ZM22.6904 27.4735C22.2582 27.4735 21.8917 27.4046 21.5911 27.2668C21.2966 27.1227 21.0774 26.9598 20.9333 26.7781C20.7892 26.5965 20.7172 26.4461 20.7172 26.3271C20.7172 26.2645 20.7391 26.2175 20.783 26.1862C20.8268 26.1486 20.8738 26.1298 20.9239 26.1298H21.3186C21.3561 26.1298 21.3843 26.136 21.4031 26.1486C21.4282 26.1611 21.4595 26.1893 21.4971 26.2331C21.6412 26.4085 21.8009 26.5464 21.9763 26.6466C22.158 26.7468 22.3992 26.7969 22.6998 26.7969C23.0381 26.7969 23.3075 26.7343 23.5079 26.609C23.7147 26.4837 23.818 26.302 23.818 26.064C23.818 25.9074 23.7742 25.7821 23.6865 25.6881C23.5988 25.5942 23.4516 25.5096 23.2448 25.4344C23.0444 25.3593 22.7437 25.2778 22.3428 25.1901C21.7978 25.0711 21.4125 24.8988 21.187 24.6733C20.9615 24.4478 20.8487 24.1565 20.8487 23.7994C20.8487 23.5677 20.9176 23.3453 21.0555 23.1323C21.1933 22.913 21.3969 22.7376 21.6662 22.6061C21.9419 22.4683 22.2676 22.3994 22.6435 22.3994C23.0381 22.3994 23.3733 22.4651 23.6489 22.5967C23.9308 22.7282 24.1406 22.8817 24.2785 23.0571C24.4225 23.2325 24.4946 23.3797 24.4946 23.4988C24.4946 23.5551 24.4726 23.6021 24.4288 23.6397C24.3912 23.6773 24.3442 23.6961 24.2879 23.6961H23.9308C23.8431 23.6961 23.7804 23.6616 23.7429 23.5927C23.6364 23.4737 23.5455 23.3829 23.4704 23.3202C23.4014 23.2513 23.2981 23.1949 23.1603 23.1511C23.0225 23.101 22.8502 23.0759 22.6435 23.0759C22.3365 23.0759 22.1016 23.1417 21.9387 23.2732C21.7758 23.3985 21.6944 23.5677 21.6944 23.7807C21.6944 23.9122 21.7289 24.025 21.7978 24.1189C21.8667 24.2066 21.9982 24.2912 22.1924 24.3726C22.3866 24.4478 22.6748 24.5261 23.0569 24.6075C23.652 24.7328 24.0717 24.9114 24.316 25.1431C24.5666 25.3749 24.6919 25.6725 24.6919 26.0358C24.6919 26.3052 24.6136 26.5495 24.457 26.7687C24.3066 26.988 24.078 27.1603 23.771 27.2856C23.4704 27.4108 23.1102 27.4735 22.6904 27.4735Z" fill="#4F5665"/>
<path d="M2.23726 11.9355C2.16679 11.9355 2.10806 11.9121 2.06108 11.8651C2.01409 11.8103 1.9906 11.7476 1.9906 11.6771C1.9906 11.6223 2.00626 11.5714 2.03758 11.5244L3.68197 9.28103C3.58018 9.30452 3.47447 9.31235 3.36484 9.30452C2.88719 9.2732 2.43302 9.144 2.00235 8.91692C1.57167 8.682 1.21931 8.36096 0.94524 7.95377C0.679006 7.53876 0.545888 7.06894 0.545888 6.5443C0.545888 6.02749 0.675091 5.54592 0.933495 5.09958C1.19973 4.64542 1.58734 4.2813 2.09631 4.00724C2.61312 3.73317 3.23173 3.59614 3.95212 3.59614C4.68035 3.59614 5.30679 3.72143 5.83143 3.972C6.35607 4.22258 6.7515 4.56711 7.01774 5.00562C7.2918 5.43629 7.42883 5.92178 7.42883 6.46208C7.42883 6.89275 7.33878 7.28819 7.15868 7.64839C6.98642 8.00076 6.7241 8.41577 6.37173 8.89343L6.16031 9.18707L4.31624 11.7006C4.20661 11.8572 4.06567 11.9355 3.8934 11.9355H2.23726ZM3.97562 7.70712C4.32015 7.70712 4.60205 7.6014 4.8213 7.38998C5.04838 7.17856 5.16193 6.89275 5.16193 6.53255C5.16193 6.17235 5.04838 5.88654 4.8213 5.67512C4.59422 5.4637 4.31232 5.35799 3.97562 5.35799C3.63108 5.35799 3.34527 5.4637 3.11818 5.67512C2.89893 5.88654 2.78931 6.17235 2.78931 6.53255C2.78931 6.89275 2.89893 7.17856 3.11818 7.38998C3.33744 7.6014 3.62325 7.70712 3.97562 7.70712ZM11.8156 12.053C10.735 12.0452 9.91285 11.7594 9.34906 11.1956C8.78527 10.6318 8.47597 9.88789 8.42116 8.9639C8.4055 8.54106 8.39767 8.16128 8.39767 7.82457C8.39767 7.48003 8.4055 7.08851 8.42116 6.65001C8.45248 6.06273 8.59734 5.542 8.85575 5.08784C9.12198 4.62584 9.50176 4.26173 9.99507 3.99549C10.4962 3.72926 11.1031 3.59614 11.8156 3.59614C12.5282 3.59614 13.1351 3.72926 13.6362 3.99549C14.1374 4.26173 14.5171 4.62584 14.7756 5.08784C15.0418 5.542 15.1906 6.06273 15.2219 6.65001C15.2375 6.86926 15.2454 7.26078 15.2454 7.82457C15.2454 8.3727 15.2375 8.75248 15.2219 8.9639C15.1671 9.88789 14.8578 10.6318 14.294 11.1956C13.7302 11.7594 12.9041 12.0452 11.8156 12.053ZM11.8156 10.2794C12.1837 10.2794 12.4577 10.162 12.6378 9.92704C12.8179 9.6843 12.9158 9.34368 12.9315 8.90517C12.9471 8.67809 12.955 8.31006 12.955 7.80108C12.955 7.2921 12.9471 6.9319 12.9315 6.72048C12.9158 6.29764 12.8179 5.96485 12.6378 5.7221C12.4577 5.47153 12.1837 5.34624 11.8156 5.34624C11.1109 5.34624 10.739 5.80432 10.6998 6.72048C10.692 6.9319 10.6881 7.2921 10.6881 7.80108C10.6881 8.31006 10.692 8.67809 10.6998 8.90517C10.739 9.82133 11.1109 10.2794 11.8156 10.2794ZM18.8935 11.5479C18.8152 11.5479 18.7447 11.5205 18.6821 11.4657C18.6273 11.4031 18.5999 11.3326 18.5999 11.2543V9.12834H16.5326C16.4543 9.12834 16.3838 9.10093 16.3212 9.04612C16.2664 8.98348 16.239 8.913 16.239 8.8347V7.93028C16.239 7.84415 16.2664 7.77367 16.3212 7.71886C16.376 7.65622 16.4465 7.6249 16.5326 7.6249H18.5999V5.56941C18.5999 5.48327 18.6273 5.4128 18.6821 5.35799C18.7447 5.30317 18.8152 5.27577 18.8935 5.27577H19.9036C19.9898 5.27577 20.0602 5.30317 20.115 5.35799C20.1777 5.4128 20.209 5.48327 20.209 5.56941V7.6249H22.2528C22.3389 7.6249 22.4094 7.65622 22.4642 7.71886C22.5268 7.77367 22.5581 7.84415 22.5581 7.93028V8.8347C22.5581 8.92083 22.5268 8.99131 22.4642 9.04612C22.4094 9.10093 22.3389 9.12834 22.2528 9.12834H20.209V11.2543C20.209 11.3404 20.1777 11.4109 20.115 11.4657C20.0602 11.5205 19.9898 11.5479 19.9036 11.5479H18.8935Z" fill="#0B132A"/>
</svg>
