<svg width="44" height="32" viewBox="0 0 44 32" fill="none" xmlns="http://www.w3.org/2000/svg">
<path d="M1.30808 27.3795C1.24543 27.3795 1.19532 27.3607 1.15773 27.3231C1.12015 27.2793 1.10135 27.226 1.10135 27.1634V21.0181C1.10135 20.9554 1.12015 20.9053 1.15773 20.8677C1.19532 20.8239 1.24543 20.802 1.30808 20.802H1.7779C1.84055 20.802 1.89066 20.8239 1.92825 20.8677C1.96583 20.9053 1.98463 20.9554 1.98463 21.0181V26.5902H5.12306C5.19197 26.5902 5.24522 26.6121 5.2828 26.656C5.32665 26.6936 5.34858 26.7437 5.34858 26.8063V27.1634C5.34858 27.226 5.32665 27.2793 5.2828 27.3231C5.23895 27.3607 5.1857 27.3795 5.12306 27.3795H1.30808ZM8.12811 27.4735C7.43903 27.4735 6.90656 27.2793 6.5307 26.8909C6.16111 26.5025 5.96378 25.9857 5.93872 25.3405L5.92933 24.9364L5.93872 24.5324C5.96378 23.8871 6.16424 23.3703 6.5401 22.9819C6.92222 22.5936 7.45156 22.3994 8.12811 22.3994C8.80466 22.3994 9.33086 22.5936 9.70672 22.9819C10.0888 23.3703 10.2924 23.8871 10.3175 24.5324C10.33 24.6702 10.3363 24.8049 10.3363 24.9364C10.3363 25.068 10.33 25.2027 10.3175 25.3405C10.2924 25.9857 10.092 26.5025 9.71612 26.8909C9.34652 27.2793 8.81719 27.4735 8.12811 27.4735ZM8.12811 26.7687C8.52903 26.7687 8.84538 26.6435 9.07716 26.3929C9.3152 26.136 9.44362 25.7696 9.46241 25.2935C9.46868 25.2308 9.47181 25.1118 9.47181 24.9364C9.47181 24.761 9.46868 24.642 9.46241 24.5794C9.44362 24.1033 9.3152 23.7399 9.07716 23.4894C8.84538 23.2325 8.52903 23.1041 8.12811 23.1041C7.72719 23.1041 7.40771 23.2325 7.16967 23.4894C6.93788 23.7399 6.8126 24.1033 6.7938 24.5794L6.78441 24.9364L6.7938 25.2935C6.8126 25.7696 6.93788 26.136 7.16967 26.3929C7.40771 26.6435 7.72719 26.7687 8.12811 26.7687ZM13.4772 27.4735C12.8069 27.4735 12.2839 27.2856 11.908 26.9097C11.5321 26.5276 11.3348 25.9951 11.316 25.3123L11.3066 24.9364L11.316 24.5606C11.3348 23.8777 11.5321 23.3484 11.908 22.9726C12.2839 22.5904 12.8069 22.3994 13.4772 22.3994C13.9283 22.3994 14.3072 22.4808 14.6142 22.6437C14.9274 22.8003 15.1592 22.9976 15.3095 23.2357C15.4662 23.4737 15.5507 23.7117 15.5632 23.9498C15.5695 24.0062 15.5476 24.0563 15.4975 24.1001C15.4536 24.144 15.4035 24.1659 15.3471 24.1659H14.9337C14.871 24.1659 14.8241 24.1534 14.7927 24.1283C14.7614 24.097 14.7301 24.0438 14.6988 23.9686C14.586 23.6616 14.4294 23.4455 14.2289 23.3202C14.0347 23.1887 13.7873 23.1229 13.4866 23.1229C13.092 23.1229 12.7787 23.2451 12.547 23.4894C12.3152 23.7337 12.1899 24.1064 12.1711 24.6075L12.1617 24.9364L12.1711 25.2653C12.1899 25.7664 12.3152 26.1392 12.547 26.3835C12.7787 26.6278 13.092 26.75 13.4866 26.75C13.7936 26.75 14.0441 26.6873 14.2383 26.562C14.4325 26.4305 14.586 26.2112 14.6988 25.9043C14.7301 25.8291 14.7614 25.779 14.7927 25.7539C14.8241 25.7226 14.871 25.7069 14.9337 25.7069H15.3471C15.4035 25.7069 15.4536 25.7289 15.4975 25.7727C15.5476 25.8166 15.5695 25.8667 15.5632 25.9231C15.5507 26.1548 15.4662 26.3898 15.3095 26.6278C15.1592 26.8658 14.9274 27.0663 14.6142 27.2292C14.3072 27.392 13.9283 27.4735 13.4772 27.4735ZM18.0421 27.4735C17.7351 27.4735 17.4501 27.4108 17.187 27.2856C16.9302 27.1603 16.7234 26.9911 16.5668 26.7781C16.4165 26.5589 16.3413 26.3177 16.3413 26.0546C16.3413 25.6412 16.5105 25.3029 16.8487 25.0398C17.187 24.7767 17.6474 24.6013 18.23 24.5136L19.6395 24.3163V24.0438C19.6395 23.3985 19.2668 23.0759 18.5213 23.0759C18.2332 23.0759 18.0014 23.1354 17.826 23.2544C17.6506 23.3672 17.5222 23.5019 17.4407 23.6585C17.4157 23.7211 17.3875 23.765 17.3561 23.79C17.3311 23.8088 17.2935 23.8182 17.2434 23.8182H16.8769C16.8205 23.8182 16.7704 23.7994 16.7266 23.7619C16.689 23.718 16.6702 23.6679 16.6702 23.6115C16.6702 23.4674 16.736 23.3014 16.8675 23.1135C17.0053 22.9193 17.2152 22.7533 17.4971 22.6155C17.779 22.4714 18.1235 22.3994 18.5307 22.3994C19.2323 22.3994 19.7335 22.5622 20.0342 22.888C20.3411 23.2137 20.4946 23.6209 20.4946 24.1095V27.1634C20.4946 27.226 20.4727 27.2793 20.4288 27.3231C20.3912 27.3607 20.3411 27.3795 20.2785 27.3795H19.865C19.8024 27.3795 19.7523 27.3607 19.7147 27.3231C19.6771 27.2793 19.6583 27.226 19.6583 27.1634V26.75C19.5205 26.9567 19.32 27.1289 19.0569 27.2668C18.7938 27.4046 18.4555 27.4735 18.0421 27.4735ZM18.23 26.7875C18.6435 26.7875 18.9817 26.6529 19.2448 26.3835C19.5079 26.1141 19.6395 25.7226 19.6395 25.2089V24.9458L18.5401 25.1056C18.0891 25.1682 17.7477 25.2747 17.5159 25.425C17.2841 25.5754 17.1682 25.7633 17.1682 25.9888C17.1682 26.2457 17.2716 26.443 17.4783 26.5808C17.6913 26.7186 17.9419 26.7875 18.23 26.7875ZM23.6887 27.3795C22.7177 27.3795 22.2322 26.8314 22.2322 25.7351V23.2169H21.4899C21.4272 23.2169 21.3771 23.1981 21.3395 23.1605C21.3019 23.1229 21.2832 23.0728 21.2832 23.0101V22.7094C21.2832 22.6468 21.3019 22.5967 21.3395 22.5591C21.3771 22.5153 21.4272 22.4933 21.4899 22.4933H22.2322V20.9241C22.2322 20.8615 22.251 20.8114 22.2886 20.7738C22.3262 20.7299 22.3763 20.708 22.4389 20.708H22.8524C22.915 20.708 22.9651 20.7299 23.0027 20.7738C23.0466 20.8114 23.0685 20.8615 23.0685 20.9241V22.4933H24.2337C24.2963 22.4933 24.3464 22.5153 24.384 22.5591C24.4279 22.5967 24.4498 22.6468 24.4498 22.7094V23.0101C24.4498 23.0728 24.4279 23.1229 24.384 23.1605C24.3464 23.1981 24.2963 23.2169 24.2337 23.2169H23.0685V25.6694C23.0685 25.9888 23.1186 26.23 23.2188 26.3929C23.3253 26.5558 23.5039 26.6372 23.7544 26.6372H24.3276C24.3903 26.6372 24.4404 26.6591 24.478 26.703C24.5156 26.7406 24.5343 26.7907 24.5343 26.8533V27.1634C24.5343 27.226 24.5156 27.2793 24.478 27.3231C24.4404 27.3607 24.3903 27.3795 24.3276 27.3795H23.6887ZM25.5933 21.5725C25.5306 21.5725 25.4774 21.5537 25.4335 21.5161C25.396 21.4722 25.3772 21.419 25.3772 21.3564V20.8677C25.3772 20.8051 25.396 20.7518 25.4335 20.708C25.4774 20.6641 25.5306 20.6422 25.5933 20.6422H26.1477C26.2103 20.6422 26.2636 20.6641 26.3074 20.708C26.3513 20.7518 26.3732 20.8051 26.3732 20.8677V21.3564C26.3732 21.419 26.3513 21.4722 26.3074 21.5161C26.2636 21.5537 26.2103 21.5725 26.1477 21.5725H25.5933ZM25.6685 27.3795C25.6058 27.3795 25.5526 27.3607 25.5087 27.3231C25.4711 27.2793 25.4523 27.226 25.4523 27.1634V22.7094C25.4523 22.6468 25.4711 22.5967 25.5087 22.5591C25.5526 22.5153 25.6058 22.4933 25.6685 22.4933H26.0819C26.1446 22.4933 26.1947 22.5153 26.2323 22.5591C26.2761 22.5967 26.298 22.6468 26.298 22.7094V27.1634C26.298 27.226 26.2761 27.2793 26.2323 27.3231C26.1947 27.3607 26.1446 27.3795 26.0819 27.3795H25.6685ZM29.6924 27.4735C29.0033 27.4735 28.4708 27.2793 28.095 26.8909C27.7254 26.5025 27.528 25.9857 27.503 25.3405L27.4936 24.9364L27.503 24.5324C27.528 23.8871 27.7285 23.3703 28.1044 22.9819C28.4865 22.5936 29.0158 22.3994 29.6924 22.3994C30.3689 22.3994 30.8951 22.5936 31.271 22.9819C31.6531 23.3703 31.8567 23.8871 31.8818 24.5324C31.8943 24.6702 31.9006 24.8049 31.9006 24.9364C31.9006 25.068 31.8943 25.2027 31.8818 25.3405C31.8567 25.9857 31.6562 26.5025 31.2804 26.8909C30.9108 27.2793 30.3815 27.4735 29.6924 27.4735ZM29.6924 26.7687C30.0933 26.7687 30.4096 26.6435 30.6414 26.3929C30.8795 26.136 31.0079 25.7696 31.0267 25.2935C31.0329 25.2308 31.0361 25.1118 31.0361 24.9364C31.0361 24.761 31.0329 24.642 31.0267 24.5794C31.0079 24.1033 30.8795 23.7399 30.6414 23.4894C30.4096 23.2325 30.0933 23.1041 29.6924 23.1041C29.2915 23.1041 28.972 23.2325 28.7339 23.4894C28.5021 23.7399 28.3769 24.1033 28.3581 24.5794L28.3487 24.9364L28.3581 25.2935C28.3769 25.7696 28.5021 26.136 28.7339 26.3929C28.972 26.6435 29.2915 26.7687 29.6924 26.7687ZM33.3031 27.3795C33.2405 27.3795 33.1872 27.3607 33.1434 27.3231C33.1058 27.2793 33.087 27.226 33.087 27.1634V22.7094C33.087 22.6468 33.1058 22.5967 33.1434 22.5591C33.1872 22.5153 33.2405 22.4933 33.3031 22.4933H33.7072C33.7761 22.4933 33.8293 22.5121 33.8669 22.5497C33.9045 22.5873 33.9233 22.6405 33.9233 22.7094V23.1229C34.1112 22.8911 34.3273 22.7126 34.5717 22.5873C34.8222 22.462 35.1323 22.3994 35.5019 22.3994C36.1033 22.3994 36.57 22.5936 36.902 22.9819C37.234 23.3641 37.4 23.8715 37.4 24.5042V27.1634C37.4 27.226 37.3781 27.2793 37.3342 27.3231C37.2966 27.3607 37.2465 27.3795 37.1839 27.3795H36.7516C36.689 27.3795 36.6358 27.3607 36.5919 27.3231C36.5543 27.2793 36.5355 27.226 36.5355 27.1634V24.5606C36.5355 24.1095 36.4259 23.7587 36.2067 23.5082C35.9874 23.2576 35.6742 23.1323 35.267 23.1323C34.8661 23.1323 34.5466 23.2607 34.3086 23.5175C34.0705 23.7681 33.9515 24.1158 33.9515 24.5606V27.1634C33.9515 27.226 33.9296 27.2793 33.8857 27.3231C33.8481 27.3607 33.798 27.3795 33.7354 27.3795H33.3031ZM40.4305 27.4735C39.9983 27.4735 39.6318 27.4046 39.3311 27.2668C39.0367 27.1227 38.8175 26.9598 38.6734 26.7781C38.5293 26.5965 38.4573 26.4461 38.4573 26.3271C38.4573 26.2645 38.4792 26.2175 38.523 26.1862C38.5669 26.1486 38.6139 26.1298 38.664 26.1298H39.0586C39.0962 26.1298 39.1244 26.136 39.1432 26.1486C39.1683 26.1611 39.1996 26.1893 39.2372 26.2331C39.3813 26.4085 39.541 26.5464 39.7164 26.6466C39.8981 26.7468 40.1392 26.7969 40.4399 26.7969C40.7782 26.7969 41.0476 26.7343 41.248 26.609C41.4548 26.4837 41.5581 26.302 41.5581 26.064C41.5581 25.9074 41.5143 25.7821 41.4266 25.6881C41.3389 25.5942 41.1917 25.5096 40.9849 25.4344C40.7845 25.3593 40.4838 25.2778 40.0829 25.1901C39.5379 25.0711 39.1526 24.8988 38.9271 24.6733C38.7016 24.4478 38.5888 24.1565 38.5888 23.7994C38.5888 23.5677 38.6577 23.3453 38.7955 23.1323C38.9334 22.913 39.1369 22.7376 39.4063 22.6061C39.6819 22.4683 40.0077 22.3994 40.3836 22.3994C40.7782 22.3994 41.1133 22.4651 41.389 22.5967C41.6709 22.7282 41.8807 22.8817 42.0185 23.0571C42.1626 23.2325 42.2347 23.3797 42.2347 23.4988C42.2347 23.5551 42.2127 23.6021 42.1689 23.6397C42.1313 23.6773 42.0843 23.6961 42.0279 23.6961H41.6709C41.5832 23.6961 41.5205 23.6616 41.4829 23.5927C41.3764 23.4737 41.2856 23.3829 41.2104 23.3202C41.1415 23.2513 41.0382 23.1949 40.9004 23.1511C40.7625 23.101 40.5903 23.0759 40.3836 23.0759C40.0766 23.0759 39.8417 23.1417 39.6788 23.2732C39.5159 23.3985 39.4345 23.5677 39.4345 23.7807C39.4345 23.9122 39.469 24.025 39.5379 24.1189C39.6068 24.2066 39.7383 24.2912 39.9325 24.3726C40.1267 24.4478 40.4149 24.5261 40.797 24.6075C41.3921 24.7328 41.8118 24.9114 42.0561 25.1431C42.3067 25.3749 42.432 25.6725 42.432 26.0358C42.432 26.3052 42.3537 26.5495 42.1971 26.7687C42.0467 26.988 41.8181 27.1603 41.5111 27.2856C41.2104 27.4108 40.8502 27.4735 40.4305 27.4735Z" fill="#4F5665"/>
<path d="M4.11509 12.053C3.3477 12.053 2.70169 11.9355 2.17706 11.7006C1.66025 11.4579 1.27656 11.1603 1.02598 10.808C0.783239 10.4556 0.654037 10.1032 0.638376 9.75086C0.638376 9.68038 0.661868 9.62166 0.70885 9.57467C0.763663 9.52769 0.826307 9.5042 0.896781 9.5042H2.51768C2.61164 9.5042 2.68603 9.52377 2.74085 9.56293C2.79566 9.59425 2.84656 9.64906 2.89354 9.72737C3.04232 10.1111 3.45342 10.3029 4.12683 10.3029C4.51052 10.3029 4.80808 10.2129 5.0195 10.0328C5.23092 9.85265 5.33663 9.60991 5.33663 9.30452C5.33663 8.71724 4.94511 8.4236 4.16207 8.4236H2.84656C2.76042 8.4236 2.68603 8.39619 2.62339 8.34138C2.56858 8.27874 2.54117 8.20435 2.54117 8.11821V7.42522C2.54117 7.24512 2.60773 7.112 2.74085 7.02587L4.63189 5.47544H1.3901C1.31179 5.47544 1.24132 5.44804 1.17868 5.39322C1.12386 5.33058 1.09646 5.26011 1.09646 5.1818V4.01898C1.09646 3.93285 1.12386 3.86238 1.17868 3.80756C1.23349 3.74492 1.30396 3.7136 1.3901 3.7136H6.86357C6.9497 3.7136 7.02018 3.74492 7.07499 3.80756C7.1298 3.86238 7.15721 3.93285 7.15721 4.01898V5.06435C7.15721 5.22879 7.09456 5.35799 6.96928 5.45195L5.23092 7.03761L5.31314 7.06111C6.01788 7.1629 6.57776 7.40564 6.99277 7.78934C7.40778 8.17303 7.61529 8.72507 7.61529 9.44547C7.61529 9.97011 7.46259 10.4321 7.15721 10.8315C6.85965 11.223 6.44464 11.5244 5.91217 11.7359C5.38753 11.9473 4.7885 12.053 4.11509 12.053ZM12.0908 12.053C11.0102 12.0452 10.188 11.7594 9.62425 11.1956C9.06046 10.6318 8.75116 9.88789 8.69635 8.9639C8.68068 8.54106 8.67285 8.16128 8.67285 7.82457C8.67285 7.48003 8.68068 7.08851 8.69635 6.65001C8.72767 6.06273 8.87253 5.542 9.13093 5.08784C9.39717 4.62584 9.77694 4.26173 10.2703 3.99549C10.7714 3.72926 11.3783 3.59614 12.0908 3.59614C12.8034 3.59614 13.4103 3.72926 13.9114 3.99549C14.4126 4.26173 14.7923 4.62584 15.0507 5.08784C15.317 5.542 15.4658 6.06273 15.4971 6.65001C15.5127 6.86926 15.5206 7.26078 15.5206 7.82457C15.5206 8.3727 15.5127 8.75248 15.4971 8.9639C15.4423 9.88789 15.133 10.6318 14.5692 11.1956C14.0054 11.7594 13.1793 12.0452 12.0908 12.053ZM12.0908 10.2794C12.4589 10.2794 12.7329 10.162 12.913 9.92704C13.0931 9.6843 13.191 9.34368 13.2067 8.90517C13.2223 8.67809 13.2302 8.31006 13.2302 7.80108C13.2302 7.2921 13.2223 6.9319 13.2067 6.72048C13.191 6.29764 13.0931 5.96485 12.913 5.7221C12.7329 5.47153 12.4589 5.34624 12.0908 5.34624C11.3861 5.34624 11.0142 5.80432 10.975 6.72048C10.9672 6.9319 10.9633 7.2921 10.9633 7.80108C10.9633 8.31006 10.9672 8.67809 10.975 8.90517C11.0142 9.82133 11.3861 10.2794 12.0908 10.2794ZM19.1687 11.5479C19.0904 11.5479 19.0199 11.5205 18.9573 11.4657C18.9025 11.4031 18.875 11.3326 18.875 11.2543V9.12834H16.8078C16.7295 9.12834 16.659 9.10093 16.5964 9.04612C16.5416 8.98348 16.5142 8.913 16.5142 8.8347V7.93028C16.5142 7.84415 16.5416 7.77367 16.5964 7.71886C16.6512 7.65622 16.7217 7.6249 16.8078 7.6249H18.875V5.56941C18.875 5.48327 18.9025 5.4128 18.9573 5.35799C19.0199 5.30317 19.0904 5.27577 19.1687 5.27577H20.1788C20.2649 5.27577 20.3354 5.30317 20.3902 5.35799C20.4529 5.4128 20.4842 5.48327 20.4842 5.56941V7.6249H22.5279C22.6141 7.6249 22.6845 7.65622 22.7394 7.71886C22.802 7.77367 22.8333 7.84415 22.8333 7.93028V8.8347C22.8333 8.92083 22.802 8.99131 22.7394 9.04612C22.6845 9.10093 22.6141 9.12834 22.5279 9.12834H20.4842V11.2543C20.4842 11.3404 20.4529 11.4109 20.3902 11.4657C20.3354 11.5205 20.2649 11.5479 20.1788 11.5479H19.1687Z" fill="#0B132A"/>
</svg>
