<svg width="12" height="12" viewBox="0 0 12 12" fill="none" xmlns="http://www.w3.org/2000/svg">
<path d="M5.01554 8.32975C4.95387 8.32988 4.89278 8.31783 4.83578 8.29428C4.77878 8.27074 4.72699 8.23617 4.68338 8.19257L2.69038 6.1991C2.64547 6.15579 2.60965 6.10397 2.58498 6.04667C2.56032 5.98936 2.54732 5.92772 2.54673 5.86534C2.54615 5.80296 2.55799 5.74108 2.58157 5.68333C2.60515 5.62557 2.64 5.57309 2.68408 5.52895C2.72817 5.4848 2.7806 5.44988 2.83832 5.42622C2.89604 5.40255 2.9579 5.39062 3.02028 5.39112C3.08267 5.39162 3.14433 5.40453 3.20166 5.42911C3.259 5.4537 3.31087 5.48945 3.35424 5.53429L5.01507 7.19513L8.00552 4.20563C8.09361 4.11747 8.21312 4.06792 8.33775 4.06787C8.46238 4.06783 8.58192 4.11729 8.67008 4.20539C8.75824 4.29349 8.80779 4.413 8.80784 4.53763C8.80788 4.66226 8.75841 4.7818 8.67032 4.86996L5.34771 8.19257C5.3041 8.23617 5.25231 8.27074 5.19531 8.29428C5.13831 8.31783 5.07722 8.32988 5.01554 8.32975Z" fill="#2FAB73"/>
</svg>
