<svg width="71" height="18" viewBox="0 0 71 18" fill="none" xmlns="http://www.w3.org/2000/svg">
<path d="M22.5745 12.3649C22.5119 12.3649 22.4586 12.3429 22.4148 12.2991C22.3709 12.2552 22.349 12.202 22.349 12.1394V6.01282C22.349 5.94392 22.3709 5.89067 22.4148 5.85308C22.4586 5.80923 22.5119 5.78731 22.5745 5.78731H23.4578C23.5267 5.78731 23.5799 5.80923 23.6175 5.85308C23.6614 5.89067 23.6833 5.94392 23.6833 6.01282V11.2373H26.662C26.7309 11.2373 26.7873 11.2592 26.8311 11.3031C26.875 11.3469 26.8969 11.4002 26.8969 11.4628V12.1394C26.8969 12.202 26.875 12.2552 26.8311 12.2991C26.7873 12.3429 26.7309 12.3649 26.662 12.3649H22.5745ZM29.115 12.4588C28.7955 12.4588 28.5011 12.3962 28.2317 12.2709C27.9686 12.1394 27.7588 11.964 27.6022 11.7447C27.4518 11.5254 27.3766 11.2843 27.3766 11.0212C27.3766 10.5952 27.5489 10.2507 27.8935 9.98755C28.238 9.72445 28.711 9.54591 29.3123 9.45195L30.5997 9.26402V9.06669C30.5997 8.79733 30.5307 8.59373 30.3929 8.45592C30.2551 8.3181 30.0359 8.2492 29.7352 8.2492C29.5284 8.2492 29.3624 8.28678 29.2372 8.36195C29.1119 8.43713 29.0085 8.51543 28.9271 8.59687C28.8519 8.67204 28.8018 8.72215 28.7767 8.74721C28.7517 8.82238 28.7047 8.85997 28.6358 8.85997H27.9029C27.8465 8.85997 27.7964 8.84118 27.7525 8.80359C27.7149 8.766 27.6961 8.71589 27.6961 8.65325C27.7024 8.49664 27.7776 8.32124 27.9216 8.12704C28.072 7.92658 28.3006 7.75431 28.6076 7.61023C28.9145 7.45989 29.2935 7.38472 29.7446 7.38472C30.4838 7.38472 31.0225 7.55072 31.3608 7.88273C31.699 8.21474 31.8682 8.65011 31.8682 9.18885V12.1394C31.8682 12.202 31.8463 12.2552 31.8024 12.2991C31.7648 12.3429 31.7116 12.3649 31.6427 12.3649H30.8628C30.8001 12.3649 30.7469 12.3429 30.703 12.2991C30.6592 12.2552 30.6372 12.202 30.6372 12.1394V11.7729C30.4994 11.9733 30.3052 12.1394 30.0547 12.2709C29.8041 12.3962 29.4909 12.4588 29.115 12.4588ZM29.4345 11.5568C29.779 11.5568 30.0609 11.444 30.2802 11.2185C30.4994 10.993 30.609 10.6672 30.609 10.2413V10.0533L29.6694 10.2037C28.949 10.3164 28.5888 10.5576 28.5888 10.9272C28.5888 11.1277 28.6702 11.2843 28.8331 11.397C29.0022 11.5035 29.2027 11.5568 29.4345 11.5568ZM34.9339 12.4588C34.4578 12.4588 34.0601 12.3868 33.7406 12.2427C33.4211 12.0986 33.1831 11.9326 33.0264 11.7447C32.8761 11.5505 32.8009 11.3845 32.8009 11.2467C32.8009 11.184 32.8197 11.1339 32.8573 11.0963C32.9012 11.0588 32.9513 11.04 33.0077 11.04H33.7782C33.8283 11.04 33.8721 11.065 33.9097 11.1151C33.941 11.1402 34.0099 11.1997 34.1164 11.2937C34.2292 11.3876 34.3545 11.4628 34.4923 11.5192C34.6364 11.5693 34.793 11.5944 34.9621 11.5944C35.2127 11.5944 35.4163 11.5474 35.5729 11.4534C35.7295 11.3532 35.8078 11.2122 35.8078 11.0306C35.8078 10.9053 35.7702 10.805 35.6951 10.7299C35.6261 10.6484 35.4977 10.5764 35.3098 10.5138C35.1281 10.4448 34.8525 10.3697 34.4829 10.2882C33.9504 10.1755 33.5558 10.0032 33.2989 9.77143C33.0484 9.53965 32.9231 9.2327 32.9231 8.85057C32.9231 8.6 32.9983 8.36509 33.1486 8.14583C33.2989 7.92032 33.5213 7.73865 33.8158 7.60084C34.1164 7.45676 34.4735 7.38472 34.887 7.38472C35.3129 7.38472 35.6794 7.45362 35.9863 7.59144C36.2933 7.72299 36.5251 7.88273 36.6817 8.07066C36.8446 8.25859 36.926 8.4246 36.926 8.56868C36.926 8.62506 36.9041 8.67517 36.8602 8.71902C36.8226 8.75661 36.7757 8.7754 36.7193 8.7754H36.0145C35.9456 8.7754 35.8924 8.75034 35.8548 8.70023C35.8109 8.66891 35.7389 8.61253 35.6387 8.53109C35.5447 8.44339 35.4382 8.37448 35.3192 8.32437C35.2002 8.27425 35.0561 8.2492 34.887 8.2492C34.6552 8.2492 34.4766 8.29931 34.3514 8.39954C34.2261 8.49977 34.1634 8.63132 34.1634 8.79419C34.1634 8.90695 34.1916 9.00092 34.248 9.07609C34.3106 9.15126 34.4328 9.2233 34.6145 9.29221C34.7961 9.35485 35.0686 9.42063 35.432 9.48953C36.5595 9.70879 37.1233 10.2005 37.1233 10.9648C37.1233 11.4096 36.9291 11.7698 36.5407 12.0454C36.1586 12.321 35.623 12.4588 34.9339 12.4588ZM38.3186 12.3649C38.2559 12.3649 38.2027 12.3429 38.1589 12.2991C38.115 12.2552 38.0931 12.202 38.0931 12.1394V5.91886C38.0931 5.84995 38.115 5.79671 38.1589 5.75912C38.2027 5.71527 38.2559 5.69334 38.3186 5.69334H39.1079C39.1768 5.69334 39.2301 5.71527 39.2676 5.75912C39.3115 5.79671 39.3334 5.84995 39.3334 5.91886V12.1394C39.3334 12.202 39.3115 12.2552 39.2676 12.2991C39.2301 12.3429 39.1768 12.3649 39.1079 12.3649H38.3186ZM42.6938 12.4588C41.9922 12.4588 41.4347 12.2584 41.0213 11.8575C40.6141 11.4565 40.398 10.8865 40.3729 10.1473L40.3635 9.91238C40.3635 9.12934 40.5671 8.5123 40.9743 8.06126C41.3877 7.61023 41.9578 7.38472 42.6844 7.38472C43.4299 7.38472 44.0031 7.61023 44.404 8.06126C44.8112 8.5123 45.0148 9.11367 45.0148 9.8654V10.0627C45.0148 10.1254 44.9929 10.1786 44.949 10.2225C44.9052 10.2663 44.8488 10.2882 44.7799 10.2882H41.6602V10.3634C41.6728 10.7142 41.7667 11.0055 41.9421 11.2373C42.1238 11.4628 42.3712 11.5756 42.6844 11.5756C43.0415 11.5756 43.3328 11.4315 43.5583 11.1433C43.6147 11.0744 43.6586 11.0337 43.6899 11.0212C43.7212 11.0024 43.7744 10.993 43.8496 10.993H44.6765C44.7329 10.993 44.7799 11.0086 44.8175 11.04C44.8613 11.0713 44.8832 11.1151 44.8832 11.1715C44.8832 11.3219 44.7924 11.5004 44.6107 11.7071C44.4353 11.9076 44.1816 12.083 43.8496 12.2333C43.5176 12.3837 43.1323 12.4588 42.6938 12.4588ZM43.7181 9.48953V9.47074C43.7181 9.10115 43.6241 8.80672 43.4362 8.58747C43.2545 8.36195 43.0039 8.2492 42.6844 8.2492C42.365 8.2492 42.1144 8.36195 41.9327 8.58747C41.7511 8.80672 41.6602 9.10115 41.6602 9.47074V9.48953H43.7181ZM47.8725 12.4588C47.3964 12.4588 46.9986 12.3868 46.6791 12.2427C46.3597 12.0986 46.1216 11.9326 45.965 11.7447C45.8147 11.5505 45.7395 11.3845 45.7395 11.2467C45.7395 11.184 45.7583 11.1339 45.7959 11.0963C45.8397 11.0588 45.8898 11.04 45.9462 11.04H46.7167C46.7668 11.04 46.8107 11.065 46.8483 11.1151C46.8796 11.1402 46.9485 11.1997 47.055 11.2937C47.1678 11.3876 47.293 11.4628 47.4309 11.5192C47.5749 11.5693 47.7315 11.5944 47.9007 11.5944C48.1513 11.5944 48.3549 11.5474 48.5115 11.4534C48.6681 11.3532 48.7464 11.2122 48.7464 11.0306C48.7464 10.9053 48.7088 10.805 48.6336 10.7299C48.5647 10.6484 48.4363 10.5764 48.2484 10.5138C48.0667 10.4448 47.7911 10.3697 47.4215 10.2882C46.889 10.1755 46.4943 10.0032 46.2375 9.77143C45.9869 9.53965 45.8616 9.2327 45.8616 8.85057C45.8616 8.6 45.9368 8.36509 46.0872 8.14583C46.2375 7.92032 46.4599 7.73865 46.7543 7.60084C47.055 7.45676 47.4121 7.38472 47.8255 7.38472C48.2515 7.38472 48.618 7.45362 48.9249 7.59144C49.2319 7.72299 49.4636 7.88273 49.6202 8.07066C49.7831 8.25859 49.8646 8.4246 49.8646 8.56868C49.8646 8.62506 49.8426 8.67517 49.7988 8.71902C49.7612 8.75661 49.7142 8.7754 49.6578 8.7754H48.9531C48.8842 8.7754 48.8309 8.75034 48.7934 8.70023C48.7495 8.66891 48.6775 8.61253 48.5772 8.53109C48.4833 8.44339 48.3768 8.37448 48.2578 8.32437C48.1387 8.27425 47.9947 8.2492 47.8255 8.2492C47.5937 8.2492 47.4152 8.29931 47.2899 8.39954C47.1646 8.49977 47.102 8.63132 47.102 8.79419C47.102 8.90695 47.1302 9.00092 47.1866 9.07609C47.2492 9.15126 47.3713 9.2233 47.553 9.29221C47.7347 9.35485 48.0072 9.42063 48.3705 9.48953C49.4981 9.70879 50.0619 10.2005 50.0619 10.9648C50.0619 11.4096 49.8677 11.7698 49.4793 12.0454C49.0972 12.321 48.5616 12.4588 47.8725 12.4588ZM52.9203 12.3649C52.8138 12.3649 52.7261 12.3398 52.6572 12.2897C52.5946 12.2333 52.5507 12.1644 52.5257 12.083L50.6276 6.0692L50.6088 5.98464C50.6088 5.93452 50.6276 5.89067 50.6652 5.85308C50.709 5.80923 50.7591 5.78731 50.8155 5.78731H52.0465C52.1404 5.78731 52.2156 5.8155 52.272 5.87188C52.3346 5.92199 52.3753 5.97837 52.3941 6.04101L53.6721 10.2882L54.9594 6.04101C54.9782 5.97211 55.0158 5.9126 55.0721 5.86248C55.1348 5.81237 55.2131 5.78731 55.307 5.78731H56.538C56.5944 5.78731 56.6414 5.80923 56.6789 5.85308C56.7165 5.89067 56.7353 5.93452 56.7353 5.98464C56.7353 6.01596 56.7322 6.04415 56.7259 6.0692L54.8184 12.083C54.7996 12.1644 54.7558 12.2333 54.6869 12.2897C54.6242 12.3398 54.5397 12.3649 54.4332 12.3649H52.9203ZM57.8278 12.3649C57.7652 12.3649 57.7088 12.3429 57.6587 12.2991C57.6148 12.249 57.5929 12.1926 57.5929 12.13V6.03162C57.5929 5.96271 57.6148 5.90633 57.6587 5.86248C57.7025 5.81237 57.7589 5.78731 57.8278 5.78731H60.487C61.3014 5.78731 61.9404 5.97211 62.4039 6.3417C62.8675 6.7113 63.0993 7.25316 63.0993 7.9673C63.0993 8.68143 62.8675 9.21704 62.4039 9.5741C61.9404 9.92491 61.3014 10.1003 60.487 10.1003H59.4158V12.13C59.4158 12.1926 59.3939 12.249 59.35 12.2991C59.3062 12.3429 59.2498 12.3649 59.1809 12.3649H57.8278ZM60.44 8.75661C60.6969 8.75661 60.8973 8.69083 61.0414 8.55928C61.1918 8.42146 61.2669 8.22101 61.2669 7.9579C61.2669 7.71359 61.198 7.51627 61.0602 7.36592C60.9287 7.21558 60.7219 7.14041 60.44 7.14041H59.3876V8.75661H60.44ZM64.2053 12.3649C64.1427 12.3649 64.0863 12.3429 64.0362 12.2991C63.9923 12.249 63.9704 12.1926 63.9704 12.13V6.03162C63.9704 5.96271 63.9923 5.90633 64.0362 5.86248C64.08 5.81237 64.1364 5.78731 64.2053 5.78731H65.2671C65.4112 5.78731 65.5177 5.84682 65.5866 5.96584L67.8042 9.47074V6.03162C67.8042 5.96271 67.8261 5.90633 67.87 5.86248C67.9138 5.81237 67.9702 5.78731 68.0391 5.78731H69.2325C69.3014 5.78731 69.3577 5.81237 69.4016 5.86248C69.4454 5.90633 69.4674 5.96271 69.4674 6.03162V12.1206C69.4674 12.1895 69.4454 12.249 69.4016 12.2991C69.3577 12.3429 69.3014 12.3649 69.2325 12.3649H68.1707C68.0266 12.3649 67.9201 12.3054 67.8512 12.1863L65.643 8.82238V12.13C65.643 12.1989 65.6179 12.2552 65.5678 12.2991C65.524 12.3429 65.4676 12.3649 65.3987 12.3649H64.2053Z" fill="#0B132A"/>
<path d="M15.1075 6.90339L15.0973 6.89316C15.0965 6.89259 15.0958 6.89182 15.0954 6.89094L8.69594 0.491333L2.29656 6.89077C2.29583 6.89152 2.29467 6.89299 2.29467 6.89299L2.28411 6.90322C1.30556 7.88727 0.684004 9.17018 0.518265 10.548C0.352525 11.9259 0.652109 13.3196 1.36939 14.5077C2.08667 15.6958 3.18048 16.61 4.47696 17.1049C5.77342 17.5999 7.19815 17.6473 8.52463 17.2396C8.63626 17.2054 8.75556 17.2054 8.86719 17.2396C10.1936 17.6472 11.6182 17.5997 12.9146 17.1047C14.211 16.6097 15.3047 15.6955 16.0219 14.5075C16.7392 13.3196 17.0388 11.9259 16.8731 10.5481C16.7074 9.17035 16.086 7.88744 15.1075 6.90339ZM4.5721 11.1234C4.54095 11.1546 4.51624 11.1916 4.49939 11.2322C4.48253 11.2729 4.47386 11.3165 4.47387 11.3606C4.48525 12.49 4.80446 13.595 5.39711 14.5565C5.41058 14.5784 5.4168 14.6039 5.41489 14.6294C5.41298 14.655 5.40304 14.6792 5.38648 14.6988C5.36993 14.7184 5.34761 14.7322 5.32272 14.7383C5.29783 14.7444 5.27165 14.7425 5.24792 14.7329C4.80237 14.5455 4.39762 14.273 4.05629 13.9309C3.35678 13.2312 2.96354 12.2825 2.9629 11.2932C2.96227 10.3039 3.3543 9.3547 4.05291 8.65421L8.69594 4.01161L13.3387 8.65421C14.0375 9.35462 14.4296 10.3038 14.429 11.2932C14.4284 12.2825 14.0351 13.2312 13.3355 13.9309C12.9942 14.273 12.5895 14.5455 12.144 14.7329C12.1202 14.7425 12.094 14.7444 12.0691 14.7383C12.0443 14.7322 12.0219 14.7183 12.0053 14.6988C11.9888 14.6792 11.9788 14.655 11.9769 14.6293C11.975 14.6038 11.9812 14.5783 11.9947 14.5565C12.5875 13.595 12.9068 12.49 12.9184 11.3606C12.9184 11.3165 12.9096 11.2729 12.8927 11.2321C12.8758 11.1914 12.851 11.1545 12.8197 11.1233L10.6237 8.79397C10.6018 8.77571 10.5743 8.76571 10.5457 8.76571C10.5173 8.76571 10.4897 8.77571 10.4679 8.79397C10.446 8.81215 10.4313 8.83751 10.4262 8.86553C10.4211 8.89354 10.4259 8.92238 10.44 8.94716C11.2929 10.4906 10.5595 12.7076 9.33637 13.9309L9.32992 13.9373C9.16111 14.1043 8.93321 14.1979 8.69578 14.1978C8.4583 14.1978 8.23047 14.104 8.06178 13.9369L8.05583 13.9309C6.83229 12.7076 6.09924 10.4909 6.9523 8.9475C6.96632 8.92271 6.97121 8.89387 6.9661 8.86586C6.96101 8.83784 6.94624 8.81248 6.92438 8.7943C6.90253 8.77604 6.87497 8.76604 6.8465 8.76604C6.81804 8.76604 6.79047 8.77604 6.76862 8.7943L4.5721 11.1234Z" fill="#F53838"/>
</svg>
