<svg width="27" height="27" viewBox="0 0 27 27" fill="none" xmlns="http://www.w3.org/2000/svg">
<rect x="0.209137" y="0.284668" width="25.8404" height="25.8404" rx="12.9202" fill="#FFECEC"/>
<path d="M16.888 8.97644H9.37077C9.12156 8.97644 8.88256 9.07544 8.70634 9.25166C8.53012 9.42788 8.43112 9.66688 8.43112 9.91609V11.7954C8.43112 12.0446 8.53012 12.2836 8.70634 12.4598C8.88256 12.636 9.12156 12.735 9.37077 12.735H16.888C17.1372 12.735 17.3762 12.636 17.5524 12.4598C17.7286 12.2836 17.8276 12.0446 17.8276 11.7954V9.91609C17.8276 9.66688 17.7286 9.42788 17.5524 9.25166C17.3762 9.07544 17.1372 8.97644 16.888 8.97644ZM14.5389 10.8557C14.5389 11.1152 14.3285 11.3256 14.069 11.3256C13.8096 11.3256 13.5992 11.1152 13.5992 10.8557C13.5992 10.5963 13.8096 10.3859 14.069 10.3859C14.3285 10.3859 14.5389 10.5963 14.5389 10.8557ZM16.4182 10.8557C16.4182 11.1152 16.2078 11.3256 15.9483 11.3256C15.6889 11.3256 15.4785 11.1152 15.4785 10.8557C15.4785 10.5963 15.6889 10.3859 15.9483 10.3859C16.2078 10.3859 16.4182 10.5963 16.4182 10.8557ZM16.888 13.6747H9.37077C9.12156 13.6747 8.88256 13.7737 8.70634 13.9499C8.53012 14.1261 8.43112 14.3651 8.43112 14.6143V16.4937C8.43112 16.7429 8.53012 16.9819 8.70634 17.1581C8.88256 17.3343 9.12156 17.4333 9.37077 17.4333H16.888C17.1372 17.4333 17.3762 17.3343 17.5524 17.1581C17.7286 16.9819 17.8276 16.7429 17.8276 16.4937V14.6143C17.8276 14.3651 17.7286 14.1261 17.5524 13.9499C17.3762 13.7737 17.1372 13.6747 16.888 13.6747ZM14.5389 15.554C14.5389 15.8135 14.3285 16.0238 14.069 16.0238C13.8096 16.0238 13.5992 15.8135 13.5992 15.554C13.5992 15.2945 13.8096 15.0842 14.069 15.0842C14.3285 15.0842 14.5389 15.2945 14.5389 15.554ZM16.4182 15.554C16.4182 15.8135 16.2078 16.0238 15.9483 16.0238C15.6889 16.0238 15.4785 15.8135 15.4785 15.554C15.4785 15.2945 15.6889 15.0842 15.9483 15.0842C16.2078 15.0842 16.4182 15.2945 16.4182 15.554Z" fill="#F53838"/>
</svg>
